<?xml version="1.0" encoding="utf-8"?>
<!-- Generator: Adobe Illustrator 26.4.1, SVG Export Plug-In . SVG Version: 6.00 Build 0)  -->
<svg version="1.1" id="Layer_1" xmlns="http://www.w3.org/2000/svg" xmlns:xlink="http://www.w3.org/1999/xlink" x="0px" y="0px"
	 viewBox="0 0 1106.6 550.5" style="enable-background:new 0 0 1106.6 550.5;" xml:space="preserve">
<style type="text/css">
	.st0{clip-path:url(#SVGID_00000075133767253002448040000002563914963811703713_);}
	.st1{fill:#FFDE59;stroke:#010203;stroke-width:5;stroke-miterlimit:10;}
	.st2{fill:#B5714A;}
</style>
<g>
	<defs>
		<rect id="SVGID_1_" x="111.9" width="994.7" height="506.7"/>
	</defs>
	<clipPath id="SVGID_00000048498765610759126330000004709319691227395481_">
		<use xlink:href="#SVGID_1_"  style="overflow:visible;"/>
	</clipPath>
	<g style="clip-path:url(#SVGID_00000048498765610759126330000004709319691227395481_);">
		<path class="st1" d="M195.8,214.7l-2.2,1.2c-12.3,7.2-20.3,17.4-24.1,30.5c-1.8,7-2.1,13.7-0.9,20.1c1.2,6,3.3,11.5,6.3,16.4
			c1.5,2.5,3.2,4.8,5.1,6.9c5.2,5.2,8.6,8.1,10.1,8.8c5.2,3.5,10.8,6,16.7,7.6c3,0.8,6,1.3,9.2,1.6c8.1,0.3,13,0.2,14.8-0.3
			c5.1-0.7,11-2.6,17.6-5.7c12.5-6.5,21.1-16.4,25.7-29.7c0.9-2.7,1.4-5.6,1.8-8.5c0.4-7.4,0.3-12-0.3-13.7
			c-1.2-6-3.3-11.5-6.3-16.4c-1.5-2.5-3.2-4.8-5.1-6.9c-5.2-5.2-8.6-8.1-10.1-8.8c-5.2-3.5-10.8-6-16.7-7.5c-3-0.8-6-1.3-9.2-1.6
			c-1.5-0.4-6.4-0.3-14.9,0.3C208.3,209.7,202.4,211.6,195.8,214.7 M230.4,1l876.6,5.7l0.1,492.6l-885.8,6.2L112.1,408l3.6-301.4
			L230.4,1z"/>
	</g>
</g>
<path class="st2" d="M179.8,224.6l-22.2,3.9c-0.5,0.1-0.9,0.2-1.4,0.3h0c0.1,0,0.2-0.1,0.3-0.1h0c-2.3,0.6-17,3.5-44.1,8.7
	c-5.7,1.1-9.5,6.7-8.4,12.4c1.1,5.7,6.7,9.5,12.4,8.4c27.6-5.3,42.8-8.3,45.5-9.1h0c0.3-0.1,0.5-0.2,0.8-0.2l-1.4,0.3l22.2-3.9
	c5.8-1,9.6-6.5,8.6-12.2C191.1,227.4,185.6,223.6,179.8,224.6z"/>
<path class="st2" d="M180.2,253.4c-3.5,0.2-8.4,0.2-14.5,0l0.9,0.1c-5.8-0.7-14-1.2-24.8-1.7l-0.3,0c0.1,0,0.1,0,0.2,0l0,0
	c-2.4-0.2-10.1-1.9-23.4-5.2c-5.7-1.4-11.4,2-12.8,7.7c-1.4,5.7,2,11.4,7.7,12.8c14.4,3.6,23.5,5.5,27.1,5.8h0c0.3,0,0.7,0,1,0
	l-0.3,0c10.2,0.4,18,0.9,23.2,1.5c0.3,0,0.6,0.1,0.9,0.1c6.7,0.2,12.1,0.2,16.2-0.1c5.8-0.3,10.3-5.3,10-11.1
	C191,257.6,186.1,253.1,180.2,253.4z"/>
<path class="st2" d="M174.1,258.9c0.3-0.2,0.6-0.4,0.9-0.4c0,0-0.1,0-0.1,0l0.1,0c-8.2,1.5-13.2,2.6-15.1,3.1l0.2-0.1
	c-2.7,0.7-6,1.8-9.9,3.1l-0.2,0.1c-2.2,0.8-4,1.5-5.3,2l0,0l-15.5,6.4l0.3-0.1c-0.1,0.1-0.3,0.1-0.4,0.2l0,0
	c-1.5,0.6-5.9,2.7-13.3,6.3l0.3-0.1c-1.7,0.8-3.3,1.4-4.8,2l-0.3,0.1l0,0l-0.1,0c-0.8,0.3-1.6,0.7-2.3,1.1
	c-5.2,2.7-7.1,9.1-4.4,14.3c2.7,5.2,9.2,7.1,14.3,4.4c0.2-0.1,0.4-0.2,0.6-0.3l-0.1,0.1l0,0l-0.3,0.1c1.9-0.7,4-1.6,6.1-2.5l0.3-0.1
	c6.9-3.4,10.9-5.3,11.9-5.7l0,0c0,0,0,0-0.1,0l0.3-0.1l15.5-6.4l0,0c1.1-0.4,2.6-1,4.7-1.8l-0.2,0.1c3.4-1.2,6.2-2.1,8.4-2.7
	l0.2-0.1c1.3-0.4,5.6-1.2,13.2-2.7l0.1,0c0.6-0.1,1.2-0.3,1.8-0.4c1.7-0.5,3.2-1.1,4.5-1.9c5-3.1,6.5-9.6,3.5-14.6
	C185.6,257.4,179,255.8,174.1,258.9z"/>
<path class="st2" d="M107,260.2c0.1,0,0.2,0,0.3,0c-2.7-0.1-8.4-3-16.9-8.5l0.7,0.5c-10.4-8-17-14.3-19.8-19
	c-0.1-0.2-0.3-0.4-0.4-0.6c-6.7-9.5-11.5-19.8-14.3-31c-0.1-0.2-0.1-0.4-0.2-0.6c-0.8-2.4-1-3.9-0.7-4.7h0c0,0,0,0,0,0.1
	c0,0,0.1-0.1,0.2-0.2l-0.9,0.6c8.6-4.9,18.1-1,28.7,11.6l-0.7-0.9c4.4,6.5,7.3,12.6,8.6,18.2l0.1,0.4l0,0l-0.1-0.3
	c1.4,5.8,2.9,12.9,4.4,21.3l-0.1-0.3l3.1,21.1l0,0.2c-0.1-0.4-0.1-0.6,0-0.8l0,0c0,0,0,0.1,0,0.1c-1.4,5.7,2.1,11.4,7.8,12.8
	c5.7,1.4,11.4-2.1,12.8-7.8c0.2-0.6,0.3-1.3,0.4-1.9v0c0.3-2,0.3-3.9,0-5.8l0,0.2l-3.1-21.1l-0.1-0.3c-1.6-8.9-3.1-16.4-4.7-22.7
	l-0.1-0.3v0l0.1,0.4c-1.9-8.1-5.8-16.5-11.7-25.2c-0.2-0.3-0.4-0.6-0.7-0.9c-18.2-21.6-36.6-27.1-55.4-16.4
	c-0.3,0.2-0.6,0.4-0.9,0.6c-1.6,1.2-3.1,2.5-4.3,4c-1.3,1.6-2.4,3.4-3.2,5.3c-2.3,5.5-2.2,11.9,0.1,19.1l-0.2-0.6
	c3.5,13.8,9.4,26.5,17.6,38.1l-0.4-0.6c4.2,6.9,12.5,15.2,25,24.8c0.2,0.2,0.5,0.3,0.7,0.5c11.7,7.6,20.9,11.6,27.4,11.9
	c1,0.1,2,0,3-0.1c5.8-0.6,10-5.8,9.4-11.6C118,263.8,112.8,259.6,107,260.2z"/>
<path class="st2" d="M104.2,270C49.4,268.9,16,284.5,4,316.9l-0.1,0.2c-5.2,14.8-5.2,29.8-0.1,45l0,0c4.6,13.7,16.4,36.4,35.6,68.3
	l-0.8-1.7c4.2,11,6.3,20.4,6.4,28.2l0-0.7c-2.4,35.9-13.5,61-33.1,75.3c-4.7,3.4-5.8,10.1-2.3,14.8c3.4,4.7,10.1,5.8,14.8,2.3
	c25-18.2,38.9-48.5,41.8-91c0-0.2,0-0.5,0-0.7c0-10.4-2.6-22.3-7.8-35.7c-0.2-0.6-0.5-1.1-0.8-1.7c-18.4-30.5-29.6-51.8-33.6-64l0,0
	c-3.6-10.6-3.6-21,0-31.2l-0.1,0.2c8.6-23,35.2-34,79.9-33.1c5.8,0.1,10.7-4.5,10.8-10.4C114.7,274.9,110,270.1,104.2,270z"/>
<path class="st2" d="M97.7,290c20.4,0.9,32.5,2.5,36.2,5c0,0,0,0-0.1-0.1c0.4,0.3,0.8,0.6,1.2,0.8c18.9,11.2,31.9,22.4,39.1,33.7
	l0.2,0.3c4.5,6.5,8,16.1,10.4,28.7c0.1,0.4,0.2,0.7,0.3,1.1c1.5,4.9,2.9,22,4.2,51.2c0,0.2,0,0.5,0.1,0.7c1,8.8,2.7,16.7,4.9,23.8
	l-0.2-0.6c4.9,18.8,13.6,33.7,26.2,44.8l-0.2-0.2c13.2,12.4,32.2,17.3,57,14.7l0.2,0c22.6-2.9,36.3-14,41.1-33.3
	c1.4-5.7-2-11.4-7.7-12.8c-5.7-1.4-11.4,2-12.8,7.7c-2.5,9.9-10.2,15.7-23.2,17.4l0.2,0c-18.3,1.9-31.8-1.1-40.3-9.1l-0.2-0.2
	c-9.3-8.2-15.9-19.7-19.7-34.3c0-0.2-0.1-0.4-0.2-0.6c-1.9-5.8-3.2-12.4-4.1-19.8l0.1,0.7c-1.4-31.1-3.1-49.9-5.2-56.6l0.3,1.1
	c-3-15.5-7.6-27.8-13.8-36.7l0.2,0.3c-8.9-14.1-24.3-27.6-46.2-40.5l1.2,0.8c-0.4-0.3-0.8-0.7-1.3-1c-7-4.7-22.7-7.6-47.1-8.6
	c-5.8-0.2-10.8,4.3-11,10.1C87.3,284.8,91.8,289.8,97.7,290z"/>
<path class="st2" d="M1063.7,37.3l-0.1-1.1v0L1063.7,37.3c0.1,0.8,0.2,2.4,0.2,4.7l0,0.1c0,1.5,0.1,6.8,0.1,16l0,0.3l0.2,6.7
	c0.2,5.4,4.7,9.7,10.1,9.5c5.4-0.2,9.7-4.7,9.5-10.1l-0.2-6.7l0,0.3c0-9.3,0-14.9-0.1-16.6l0,0.1c-0.1-2.9-0.2-5.1-0.3-6.6l0.1,1.1
	v0c-0.7-6.4-5.6-10.3-10.9-9.7C1066.9,27,1063,31.9,1063.7,37.3z"/>
<path class="st2" d="M1063.9,120.8c-0.3-0.5-0.5-1-0.6-1.3v0c0.7,2.6,1,11,1,25.3c0,5.4,4.4,9.8,9.8,9.8c5.4,0,9.8-4.4,9.8-9.8
	c0-15.9-0.6-25.9-1.6-30.1c-0.3-1.3-0.8-2.5-1.3-3.5c-2.7-4.7-8.6-6.4-13.4-3.8C1062.9,110.1,1061.2,116.1,1063.9,120.8z"/>
<path class="st2" d="M1062.5,197c0.5,1.8,0.8,4,1,6.4l0,0c0.1,1.8,0.2,3,0.2,3.7l0-0.1c0.1,6.7,0.2,12.4,0.5,17.3
	c0.3,5.4,4.9,9.6,10.3,9.3c5.4-0.3,9.6-4.9,9.3-10.3c-0.2-4.6-0.4-10.1-0.5-16.5v-0.1c0-1-0.1-2.6-0.2-4.7v0
	c-0.3-3.8-0.8-7.2-1.7-10.3c-1.4-5.2-6.9-8.3-12.1-6.8C1064.2,186.3,1061.1,191.7,1062.5,197z"/>
<path class="st2" d="M1059.9,271.9l-0.2-1.6L1059.9,271.9C1059.9,271.9,1059.9,271.9,1059.9,271.9L1059.9,271.9
	c0.1,0.3,0.1,1,0.1,1.9v0l0.4,21.1c0.1,5.4,4.6,9.7,10,9.6c5.4-0.1,9.7-4.6,9.6-10l-0.4-21.1v0c0-1.8-0.2-3.3-0.4-4.5l0,0
	c0-0.1,0-0.2,0-0.3l0.2,1.6c-1.1-7-6.2-10.5-11.5-9.6C1062.5,261.5,1059,266.6,1059.9,271.9z"/>
<path class="st2" d="M1057.9,339.7l-0.1,21.4v0c0,0.5,0,1.4-0.1,2.6c-0.2,5.4,4,10,9.4,10.2c5.4,0.2,10-4,10.2-9.4
	c0.1-1.5,0.1-2.6,0.1-3.4v0l0.1-21.4c0-5.4-4.3-9.8-9.8-9.9C1062.3,329.9,1057.9,334.2,1057.9,339.7z"/>
<path class="st2" d="M1060.9,406.2l-0.1,8.6l0-0.4c-0.2,4.9-0.4,9.6-0.5,14.1c-0.1,5.4,4.2,9.9,9.6,10s9.9-4.2,10-9.6
	c0.1-4.3,0.2-8.8,0.5-13.5l0-0.4l0.1-8.6c0-5.4-4.3-9.8-9.7-9.9C1065.4,396.4,1061,400.8,1060.9,406.2z"/>
<path class="st2" d="M1035.9,451.6c-1.2,0-2.3,0.1-3.5,0.1l-0.2,0c-10,0.9-15.7,1.4-17,1.5h0c0.1,0,0.2,0,0.3,0c-0.2,0-0.4,0-0.7,0
	c-5,0.2-9.9,0.2-14.7,0c-5.4-0.2-10,4-10.2,9.4c-0.2,5.4,4,10,9.4,10.2c5.3,0.2,10.8,0.2,16.3,0l-0.7,0c0.2,0,0.5,0,0.8,0h0
	c1.7,0,7.8-0.6,18.3-1.5l-0.2,0c0.6,0,1.3-0.1,2.1-0.1c5.4,0,9.8-4.4,9.8-9.9C1045.7,455.9,1041.3,451.6,1035.9,451.6z"/>
<path class="st2" d="M955.9,457.5c-1.8,0.2-3.7,0.3-5.7,0.3h0.1l-17.9,0.1l-0.1,0h0h0.1c-1.4,0-2.7,0.1-3.9,0.1
	c-5.4,0.3-9.5,5-9.2,10.4c0.3,5.4,5,9.5,10.4,9.2c0.9-0.1,1.9-0.1,3-0.1h0.1h-0.1l17.9-0.1h0.1c2.5,0,4.9-0.2,7.2-0.4
	c5.4-0.5,9.3-5.3,8.8-10.7C966.1,460.9,961.3,457,955.9,457.5z"/>
<path class="st2" d="M894,458.4c-3.1,0.5-4.9,0.8-5.4,0.8h0c0.5-0.1,1-0.1,1.6,0c-1.1-0.1-2.1,0-3.1,0.3l-2,0.8l2.1-0.8
	c0.4-0.1,0.8-0.2,1.2-0.2c-0.5,0-2.1,0.1-4.8,0.2c-5.4,0.2-9.7,4.7-9.5,10.1c0.2,5.4,4.7,9.7,10.1,9.5c3-0.1,5-0.2,5.9-0.3v0
	c0.7-0.1,1.3-0.2,1.8-0.3l2.1-0.8l-5.2,1c0.6,0,1.3,0,2.1-0.1h0c0.8-0.1,2.9-0.4,6.3-0.9c5.4-0.9,9-5.9,8.1-11.2
	C904.3,461.2,899.3,457.6,894,458.4z"/>
<path class="st2" d="M850.6,459.6c-6.9-1.1-20.8-1.8-41.7-2.2c-5.4-0.1-9.9,4.2-10,9.6c-0.1,5.4,4.2,9.9,9.6,10
	c19.9,0.4,32.9,1,39,2c5.4,0.8,10.4-2.8,11.2-8.2C859.6,465.5,856,460.5,850.6,459.6z"/>
<path class="st2" d="M781.5,457.8c-3.6-0.6-7.1-1.1-10.7-1.6c-5.4-0.7-10.3,3.1-11,8.5s3.1,10.3,8.5,11c3.3,0.4,6.6,0.9,9.9,1.5
	c5.3,0.9,10.4-2.7,11.3-8C790.4,463.8,786.8,458.7,781.5,457.8z"/>
<path class="st2" d="M737.4,459.5L737.4,459.5c-0.8-0.3-1.8-0.5-2.8-0.6h0c-1.6-0.2-6.2-0.4-13.8-0.7l-0.5,0l-15.4,0.1
	c-5.4,0-9.8,4.5-9.7,9.9c0,5.4,4.5,9.8,9.9,9.7l15.4-0.1l-0.5,0c7.2,0.3,11.3,0.5,12.4,0.6h0c-0.6-0.1-1.2-0.2-1.9-0.5
	c5.1,1.9,10.7-0.6,12.7-5.7C745,467.1,742.4,461.5,737.4,459.5z"/>
<path class="st2" d="M674.6,459.5c-5-0.4-12-0.6-21-0.6c-5.4,0-9.8,4.4-9.8,9.8c0,5.4,4.4,9.8,9.8,9.8c8.6,0,15.1,0.2,19.6,0.5
	c5.4,0.4,10.1-3.7,10.5-9.1C684.1,464.6,680,459.9,674.6,459.5z"/>
<path class="st2" d="M617.7,457.7l0.4,0v0L617.7,457.7c-2.2-0.2-9.8-0.2-22.8-0.1h0.1c-2,0-7.1-0.3-15.4-0.8
	c-5.4-0.3-10.1,3.8-10.4,9.2c-0.3,5.4,3.8,10.1,9.2,10.4c8.7,0.6,14.3,0.8,16.7,0.8h0.1c12.4-0.1,19.4-0.1,21.1,0l-0.4,0
	c5.8,0.5,10.5-3.6,10.9-9C627.1,462.8,623.1,458.1,617.7,457.7z"/>
<path class="st2" d="M544,456.9c-3.2-1-7.9-1.7-14.2-2.2c-5.4-0.4-10.1,3.6-10.5,9c-0.4,5.4,3.6,10.1,9,10.5
	c4.9,0.4,8.3,0.8,10.2,1.4c5.2,1.6,10.7-1.4,12.2-6.6S549.2,458.4,544,456.9z"/>
<path class="st2" d="M495.4,457.2c-6.6-1.3-18.1-2.3-34.4-2.9c-5.4-0.2-10,4-10.2,9.4c-0.2,5.4,4,10,9.4,10.2
	c15.3,0.6,25.8,1.5,31.5,2.6c5.3,1,10.5-2.4,11.5-7.8C504.2,463.4,500.7,458.3,495.4,457.2z"/>
<path class="st2" d="M429.4,456.2L429.4,456.2L429.4,456.2c-7-0.8-11.9-1.2-14.6-1.1l10.1,11.1c0.9-6.5-1.9-10.2-8.4-11.1h0
	c-0.5-0.1-1.1-0.1-1.8-0.1c-1.8,0-7.5,0.4-17.1,1.1c-5.4,0.4-9.4,5.1-9,10.5c0.4,5.4,5.1,9.4,10.5,9c9.2-0.7,14.4-1.1,15.7-1.1
	c-0.3,0-0.6,0-1-0.1l0,0c-6.4-0.9-9.2-4.6-8.3-11c-0.4,2.9,0.5,5.8,2.4,7.9c1.9,2.2,4.7,3.3,7.6,3.2c1.7-0.1,5.5,0.3,11.6,1h0l0,0
	c5.4,0.6,10.2-3.2,10.9-8.6C438.6,461.7,434.8,456.8,429.4,456.2z"/>
<path class="st2" d="M364.7,459.9c-1.9-0.8-4.2-1.6-7-2.4c-5.2-1.5-10.6,1.6-12.1,6.8c-1.5,5.2,1.6,10.6,6.8,12.1
	c1.9,0.5,3.4,1,4.4,1.5c5,2.2,10.8,0,12.9-5C371.9,467.9,369.7,462.1,364.7,459.9z"/>
<path class="st2" d="M329.7,458.9c-1.8,0-4.1,0.2-6.6,0.6l1-0.1c-0.4,0-0.8,0.1-1.2,0.1l0,0c-0.9,0.1-3.2,0.6-7,1.4l0.1,0
	c-0.4,0.1-1.1,0.2-2.1,0.3l-0.1,0c-0.6,0.1-1.7,0.2-3.4,0.3c-5.4,0.3-9.6,4.9-9.3,10.3c0.3,5.4,4.9,9.6,10.3,9.3
	c2.2-0.1,4-0.3,5.2-0.4l-0.1,0c1.4-0.2,2.4-0.4,3.1-0.5l0.1,0c3.5-0.7,5.6-1.1,6.2-1.2h0c-0.2,0-0.4,0.1-0.7,0.1
	c0.3,0,0.7-0.1,1-0.1c1.5-0.2,2.6-0.4,3.4-0.3c5.4,0,9.8-4.3,9.9-9.7C339.4,463.3,335.1,458.9,329.7,458.9z"/>
<path class="st2" d="M174.4,438.4c-0.5-0.3-0.8-0.5-1.1-0.8l0,0c0,0,0.1,0.1,0.2,0.2l-0.1-0.1l7.5,8l0,0c0.8,0.8,1.6,1.6,2.3,2.3
	l-0.2-0.2c2.5,2.5,4.9,4.7,7.4,6.6c4.3,3.3,10.5,2.5,13.8-1.8c3.3-4.3,2.5-10.5-1.8-13.8c-1.7-1.3-3.5-2.9-5.3-4.8l-0.2-0.2
	c-0.5-0.5-1.1-1.1-1.6-1.7l0,0l-7.5-8l-0.1-0.1c-0.3-0.4-0.7-0.7-1-1c-0.8-0.8-1.6-1.4-2.4-1.8c-4.7-2.7-10.7-1.1-13.4,3.6
	C168.1,429.7,169.7,435.7,174.4,438.4z"/>
<path class="st2" d="M133.9,405.8c0.4,0.1,0.7,0.3,0.9,0.5l0,0l3.4,2.8l-0.2-0.2c4.2,3.7,6.8,5.9,7.8,6.8c0.2,0.2,0.5,0.4,0.7,0.5
	c4.5,3,10.6,1.9,13.6-2.6c3-4.5,1.9-10.6-2.6-13.6c0.1,0.1,0.2,0.1,0.2,0.2c-0.7-0.5-2.9-2.5-6.8-5.9l-0.2-0.2l-3.4-2.8l0,0
	c-2-1.7-4.2-2.9-6.7-3.9c-5.1-1.9-10.7,0.7-12.6,5.8C126.2,398.2,128.8,403.9,133.9,405.8z"/>
<path class="st2" d="M151,366.5l0-7.1l0-0.3c-0.1-2.8-0.1-5.8-0.1-9.1c0-5.4-4.4-9.8-9.9-9.8c-5.4,0-9.8,4.4-9.8,9.9
	c0,3.4,0.1,6.6,0.2,9.5l0-0.3l0,7.1c0,5.4,4.4,9.8,9.8,9.8C146.5,376.3,150.9,371.9,151,366.5z"/>
<path class="st2" d="M148.8,312.8c-0.1-0.6-0.2-1.1-0.2-1.6c0-0.2,0-0.4,0-0.6l0,0c0,0.1,0,0.2,0,0.2c0-0.7-0.1-3.3-0.2-8l0-0.3
	l-0.9-14.9c-0.3-5.4-4.9-9.5-10.4-9.2c-5.4,0.3-9.5,5-9.2,10.4l0.9,14.9l0-0.3c0.1,4.9,0.2,7.8,0.3,8.8c0,0.2,0,0.4,0.1,0.6l0-0.6
	c0.1,1.3,0.2,2.6,0.4,4c0.9,5.3,6,9,11.3,8.1C146.1,323.2,149.7,318.2,148.8,312.8z"/>
<path class="st2" d="M160.8,213.6c-0.1-3.1-0.1-5.2,0-6.2l0-0.1c0.1-2.1,0.3-4.9,0.7-8.5l0-0.2c0.1-0.9,0.2-2.2,0.2-3.8
	c0.2-5.4-3.9-10-9.3-10.3c-5.4-0.2-10,3.9-10.3,9.3c-0.1,1.4-0.1,2.4-0.2,3.1l0-0.2c-0.4,3.9-0.7,7.1-0.8,9.5l0-0.1
	c-0.1,1.6-0.1,4.2,0,8c0.2,5.4,4.7,9.7,10.1,9.5C156.7,223.5,161,219,160.8,213.6z"/>
<path class="st2" d="M161.1,156.2c-0.1-2.1-0.2-3.6-0.2-4.5v0l0.2-10c0.1-5.4-4.1-9.9-9.6-10.1c-5.4-0.1-9.9,4.1-10.1,9.6l-0.2,9.9
	v0c0,1.6,0,3.7,0.2,6.4c0.4,5.4,5,9.5,10.4,9.1C157.4,166.3,161.5,161.6,161.1,156.2z"/>
<path class="st2" d="M172.4,121L172.4,121c-0.1,0.1-0.1,0.2-0.2,0.3c0.4-0.6,1.3-1.6,2.8-2.9l0.2-0.2c0.3-0.3,0.9-0.8,1.8-1.6
	l-0.1,0l10-8.5c4.1-3.5,4.6-9.7,1.1-13.8c-3.5-4.1-9.7-4.6-13.8-1.1l-10,8.5l-0.1,0c-1.2,1-2.1,1.8-2.7,2.4l0.2-0.2
	c-2.7,2.5-4.7,4.8-6,6.9c-0.4,0.7-0.8,1.4-1.1,2c-2.2,4.9-0.1,10.8,4.9,13C164.3,128.2,170.2,126,172.4,121z"/>
<path class="st2" d="M209.9,85.7c2-2.2,3.1-3.5,3.4-3.9v0c-0.2,0.2-0.4,0.4-0.6,0.6c0.2-0.2,0.5-0.4,0.7-0.7l0,0l0.1-0.1
	c1.3-1.4,2.8-2.9,4.5-4.6c3.9-3.8,3.9-10,0.1-13.9c-3.8-3.9-10-3.9-13.9-0.1c-1.8,1.8-3.5,3.4-4.9,4.9l0-0.1l0,0l0.6-0.6
	c-0.3,0.2-0.6,0.5-0.9,0.9h0c-0.5,0.5-1.8,2-3.9,4.4c-3.6,4.1-3.2,10.3,0.9,13.8C200.1,90.2,206.3,89.8,209.9,85.7z"/>
<path class="st2" d="M234,60.5l4.8-3.9l-0.3,0.2c2.5-1.9,4.1-3.1,4.7-3.6h0c0.1-0.1,0.1-0.1,0.2-0.2l-0.5,0.4v0l0.2-0.2
	c0.7-0.6,1.4-1.2,2.2-1.8l-0.2,0.2c1.8-1.6,4.1-4.1,6.8-7.5c3.3-4.3,2.6-10.4-1.7-13.8c-4.3-3.3-10.4-2.6-13.8,1.7
	c-1.9,2.4-3.2,4-4.1,4.7l-0.2,0.2c-0.4,0.3-0.7,0.6-1.1,0.9l0.2-0.2l0,0l-0.5,0.4c0,0,0,0,0,0c-0.4,0.3-1.7,1.3-4,3.1l-0.3,0.2
	l-4.8,3.9c-4.2,3.4-4.8,9.6-1.4,13.8S229.8,63.9,234,60.5z"/>
<path class="st2" d="M275.3,48.6c2.5-0.4,5.2-0.6,8.1-0.7l-0.5,0l16.9,0.6c5.4,0.2,10-4,10.2-9.4s-4-10-9.4-10.2l-16.9-0.6l-0.5,0
	c-3.9,0-7.7,0.4-11.2,0.9c-5.3,0.9-8.9,6-8,11.3C264.9,45.9,270,49.5,275.3,48.6z"/>
<path class="st2" d="M334.6,49.6c10.1,0.3,16.1,0.3,18,0.2c0.4,0,0.7-0.1,1-0.1l-1.3,0.1c0,0-0.1,0-0.1,0h0c0.1,0,0.4,0,0.8,0.1
	c5.4,0.6,10.2-3.2,10.9-8.6c0.6-5.4-3.2-10.2-8.6-10.9c-0.9-0.1-1.6-0.2-2.2-0.2h0c-0.2,0-0.5,0-0.7,0c-0.4,0-0.8,0-1.3,0.1
	c0.2,0,0.3,0,0.4,0c-1.4,0.1-6.8,0-16.3-0.2c-5.4-0.1-9.9,4.1-10.1,9.6C324.9,45,329.1,49.5,334.6,49.6z"/>
<path class="st2" d="M392,50.8c2.3-0.2,4.4-0.3,6.3-0.3h0l19.5,0h0c2.5,0,4,0,4.6,0.1c0,0,0,0,0,0c5.4,0.5,10.2-3.5,10.7-8.9
	c0.5-5.4-3.5-10.2-8.9-10.7c-0.1,0-0.2,0-0.3,0h0c-1.1-0.1-3.1-0.1-6.1-0.1h0l-19.5,0h0c-2.5,0-5.2,0.1-8.1,0.4
	c-5.4,0.5-9.4,5.3-8.9,10.7C381.8,47.3,386.6,51.3,392,50.8z"/>
<path class="st2" d="M454.4,51.1c5.6-0.1,10.9,0,15.9,0h0.3l11-0.2c5.4-0.1,9.7-4.6,9.6-10c-0.1-5.4-4.6-9.7-10-9.6l-11,0.2l0.3,0
	c-5.1-0.1-10.6-0.1-16.3,0c-5.4,0.1-9.8,4.5-9.7,9.9C444.6,46.8,449,51.1,454.4,51.1z"/>
<path class="st2" d="M512.6,50.8L512.6,50.8C512.7,50.8,512.7,50.8,512.6,50.8L512.6,50.8c3.3,0.5,11.6,0.7,25.1,0.5
	c5.4-0.1,9.8-4.5,9.7-9.9s-4.5-9.8-9.9-9.7c-12.3,0.1-19.6,0.1-21.7-0.3l0,0c-0.1,0-0.1,0-0.1,0c-5.3-0.9-10.3,2.8-11.2,8.1
	C503.6,44.8,507.2,49.9,512.6,50.8z"/>
<path class="st2" d="M574.4,50.1c3.5,0.5,12.5,1.1,26.9,2c5.4,0.3,10.1-3.8,10.4-9.2c0.3-5.4-3.8-10.1-9.2-10.4
	C588.5,31.6,580,31,577,30.6c-5.4-0.7-10.3,3.1-11,8.4S569,49.3,574.4,50.1z"/>
<path class="st2" d="M642.3,48.9c12.1,0.5,21.1,0.7,26.9,0.7l-0.4,0c1,0,1.8,0.1,2.5,0.2c5.4,0.7,10.3-3.1,11-8.4
	c0.7-5.4-3.1-10.3-8.4-11c-1.3-0.2-2.7-0.3-4.3-0.3l-0.4,0c-5.5,0-14.2-0.2-26-0.7c-5.4-0.2-10,4-10.2,9.4
	C632.6,44.1,636.9,48.7,642.3,48.9z"/>
<path class="st2" d="M711.8,45.7c1.8,0.1,7,0.1,15.6,0.1l-0.4,0c6.7,0.2,11.5,0.4,14.3,0.4h0.3c5.9-0.1,9.3-0.1,10.2-0.1
	c-5.9-0.3-8.9-3.5-9-9.6v-0.1c0,5.4,4.5,9.8,9.9,9.7c5.4,0,9.8-4.5,9.7-9.9v-0.1c-0.1-6.2-3.3-9.4-9.7-9.7c-1.3-0.1-5.1,0-11.4,0.1
	h0.3c-2.7,0-7.3-0.2-13.9-0.4l-0.4,0c-8.2,0-13.1,0-14.6,0c-5.4-0.2-10,3.9-10.2,9.3C702.2,40.8,706.4,45.4,711.8,45.7z"/>
<path class="st2" d="M817.5,47.4c0.9-0.1,1.9-0.2,3-0.2l-0.1,0c6.4-0.1,15.4-0.2,26.9-0.4l0.1,0c1.3,0,2.5,0,3.6,0.1
	c5.4,0.5,10.2-3.5,10.7-8.9c0.5-5.4-3.5-10.2-8.9-10.7c-2-0.2-4-0.2-6.1-0.2l0.1,0c-11.4,0.2-20.3,0.3-26.7,0.4h-0.1
	c-1.7,0-3.3,0.1-4.8,0.3c-5.4,0.6-9.3,5.4-8.7,10.8C807.3,44.1,812.1,48,817.5,47.4z"/>
<path class="st2" d="M894.2,50.6c1.2-0.4,2.9-0.7,5-1l-0.1,0c3-0.4,4.9-0.6,5.7-0.6h0c0,0,0,0,0,0c5.4,0.2,10-4,10.2-9.4
	c0.2-5.4-4-10-9.4-10.2c-0.1,0-0.3,0-0.4,0h0c-1.9,0-4.8,0.2-8.8,0.8l-0.1,0c-3,0.5-5.5,1-7.5,1.6c-5.2,1.5-8.2,7-6.7,12.2
	C883.5,49.2,889,52.2,894.2,50.6z"/>
<path class="st2" d="M943.1,48c9.1-0.2,14.3-0.3,15.6-0.2c-0.3,0-0.8-0.1-1.2-0.2c0.7,0.2,1.4,0.2,2.1,0.2h0h0
	c2.2,0,8.5,0.4,18.9,1.3c5.4,0.5,10.2-3.5,10.6-8.9c0.5-5.4-3.5-10.2-8.9-10.6c-11-1-17.9-1.4-20.8-1.4h0l2.1,0.2
	c-0.6-0.1-1.2-0.2-2-0.2c-1.7-0.1-7.4,0-17,0.2c-5.4,0.1-9.7,4.6-9.6,10.1C933.2,43.9,937.7,48.2,943.1,48z"/>
<path class="st2" d="M1017.3,49.2c1.3-0.4,2.6-0.7,3.8-0.9l-0.1,0c3.3-0.5,5.9-0.7,7.7-0.8c5.4-0.2,9.6-4.8,9.4-10.2
	c-0.2-5.4-4.8-9.6-10.2-9.4c-2.5,0.1-5.7,0.4-9.7,1l-0.1,0c-2.4,0.3-4.8,0.9-7.1,1.7c-5.1,1.7-7.9,7.2-6.2,12.4
	S1012.2,50.9,1017.3,49.2z"/>
<g>
	<g transform="translate(340.517727, 693.753477)">
		<g>
			<path class="st2" d="M153-497.1c1.7,0,3,0.4,4,1.3c1,0.8,1.4,2,1.4,3.5c0,0.5-0.1,1.1-0.3,2l-34.4,114.7
				c-0.6,1.5-1.3,2.5-2.2,3.2c-0.9,0.7-2.2,1-3.9,1H94.2c-3.3,0-5.3-1.4-6.1-4.2l-17.6-59.7c-0.3-1.5-0.7-2.2-1.2-2.2
				c-0.3,0-0.9,0.8-1.5,2.5l-17.5,59.3c-0.5,1.5-1.2,2.5-2.1,3.2c-1,0.7-2.3,1-4,1H20c-1.7,0-3-0.3-3.9-1c-0.9-0.7-1.6-1.8-2.2-3.2
				l-34.6-114.7c-0.2-0.9-0.4-1.6-0.4-2c0-1.5,0.5-2.6,1.4-3.5c1-0.8,2.3-1.3,4-1.3h28c1.7,0,2.9,0.3,3.7,0.9
				c0.8,0.6,1.4,1.5,1.7,2.7l18,62.9c0.3,1.4,0.7,2,1.2,2c0.3,0,0.6-0.4,0.9-1.4l17.8-63.6c0.6-2.4,2.4-3.5,5.4-3.5h23.7
				c1.7,0,2.9,0.3,3.7,0.9c0.8,0.6,1.4,1.5,1.7,2.7l18.6,64.4c0.2,0.7,0.6,1.1,1,1.2c0.5,0.1,0.7-0.2,0.9-0.8l17.3-64.8
				c0.6-2.4,2.4-3.5,5.4-3.5H153z"/>
		</g>
	</g>
</g>
<g>
	<g transform="translate(481.464052, 693.753477)">
		<g>
			<path class="st2" d="M30.5-493.2c0-2.6,1.1-3.9,3.2-3.9h91.5c2,0,3,1.2,3,3.5l-0.2,19.7c0,3.1-1.5,4.6-4.4,4.6H72.9
				c-2.6,0-3.9,1.1-3.9,3.2v14.4c0,1.1,0.3,2,0.9,2.6c0.6,0.6,1.3,0.9,2.2,0.9h30.5c2.4,0,3.6,1.1,3.6,3.4v21c0,1.9-1,2.9-3.1,2.9
				H71.7c-0.8,0-1.4,0.2-2,0.7c-0.5,0.4-0.8,1-0.8,1.7v16.9c0,0.9,0.1,1.5,0.4,1.9c0.3,0.3,0.8,0.5,1.6,0.5h55.1
				c2.5,0,3.7,1.1,3.7,3.2v20.8c0,1.1-0.3,2-1,2.7c-0.7,0.7-1.7,1-3,1H35.1c-1.7,0-2.9-0.3-3.6-1c-0.7-0.7-1-1.8-1-3.2V-493.2z"/>
		</g>
	</g>
</g>
<g>
	<g transform="translate(566.743557, 693.753477)">
		<g>
			<path class="st2" d="M63.3-371.4c-1.3,0-2.4-0.4-3.2-1.3c-0.8-0.8-1.2-2-1.2-3.5v-117.1c0-1.4,0.3-2.3,0.8-3
				c0.6-0.6,1.5-0.9,2.7-0.9h47.4c1.5,0,2.5,0.2,3.1,0.6c0.6,0.4,1.2,1.2,1.6,2.4l17.6,53.9c0.3,0.9,0.7,1.4,1.2,1.4
				c0.3,0,0.7-0.4,1-1.4l15.8-52c0.9-3.3,2.4-4.9,4.6-4.9h49c2,0,3,1.2,3,3.5v117.3c0,1.8-0.4,3.1-1.3,3.8c-0.8,0.7-2.2,1.1-4.1,1.1
				h-28.6c-1.7,0-2.9-0.3-3.5-1c-0.6-0.7-0.9-1.8-0.9-3.2v-76.1c0-0.9-0.2-1.4-0.7-1.4c-0.6,0-1,0.5-1.4,1.5L142-374.5
				c-0.8,2-2.2,3-4.1,3h-17.8c-2,0-3.4-1-4.1-3l-24.4-75.8c-0.3-1.1-0.7-1.7-1.2-1.7c-0.6,0-0.9,0.6-0.9,1.9v74.9
				c0,1.5-0.2,2.5-0.7,3c-0.4,0.5-1.5,0.8-3,0.8H63.3z"/>
		</g>
	</g>
</g>
<g>
	<g transform="translate(690.913568, 693.753477)">
		<g>
			<path class="st2" d="M100.3-493.2c0-2.6,1.1-3.9,3.2-3.9h91.5c2,0,3,1.2,3,3.5l-0.2,19.7c0,3.1-1.5,4.6-4.4,4.6h-50.9
				c-2.6,0-3.9,1.1-3.9,3.2v14.4c0,1.1,0.3,2,0.9,2.6c0.6,0.6,1.3,0.9,2.2,0.9h30.5c2.4,0,3.6,1.1,3.6,3.4v21c0,1.9-1,2.9-3.1,2.9
				h-31.3c-0.8,0-1.4,0.2-2,0.7c-0.5,0.4-0.8,1-0.8,1.7v16.9c0,0.9,0.1,1.5,0.4,1.9c0.3,0.3,0.8,0.5,1.6,0.5h55.1
				c2.5,0,3.7,1.1,3.7,3.2v20.8c0,1.1-0.3,2-1,2.7c-0.7,0.7-1.7,1-3,1h-90.6c-1.7,0-2.9-0.3-3.6-1c-0.7-0.7-1-1.8-1-3.2V-493.2z"/>
		</g>
	</g>
</g>
<g>
	<g transform="translate(776.193073, 693.753477)">
		<g>
			<path class="st2" d="M203.6-463.4c-2.7-2.9-5.6-5.2-8.7-6.8c-3.1-1.6-7.6-2.4-13.5-2.4s-10.2,0.8-13.1,2.5
				c-2.8,1.7-4.2,3.7-4.2,6.1c0,4.1,3.6,7,10.9,8.6l28.1,7.3c10.3,2.6,18,7.2,23.2,13.7c5.2,6.5,7.8,14.2,7.8,23.3
				c0,8.4-2.2,15.6-6.6,21.9c-4.4,6.2-10.7,11-18.9,14.4c-8.2,3.4-17.8,5.1-28.7,5.1c-12.4,0-23.7-2.1-34-6.2
				c-10.2-4.1-17.3-9.5-21.2-16.2c-0.6-1.1-0.9-2-0.9-2.5c0-1.1,0.6-2.2,1.9-3.1l17.4-12c1.2-0.8,2.4-1.2,3.4-1.2
				c1.2,0,2.3,0.5,3,1.5c3.8,5,7.7,8.5,11.7,10.5c4,2,9.2,3,15.8,3c6.3,0,11.3-0.9,15-2.6s5.5-4.2,5.5-7.2c0-2.2-0.9-4-2.7-5.6
				c-1.8-1.6-4.5-2.8-8-3.6l-25.8-6.3c-10.2-2.5-18.2-7.1-24.2-14c-6-6.8-9-14.7-9-23.6c0-7.3,2.1-14.1,6.4-20.2
				c4.3-6.2,10.4-11,18.3-14.6c7.9-3.6,17.1-5.4,27.5-5.4c10.2,0,19.6,1.7,28.3,5c8.7,3.3,15,7.8,18.8,13.3c0.8,1,1.2,2,1.2,2.9
				c0,0.8-0.4,1.5-1.2,2.2l-18.5,13.4c-0.6,0.5-1.2,0.7-1.9,0.7C206.1-461.4,205-462.1,203.6-463.4z"/>
		</g>
	</g>
</g>
</svg>
